<?xml version="1.0" encoding="UTF-8" standalone="no"?>
<!DOCTYPE svg PUBLIC "-//W3C//DTD SVG 1.0//EN"
 "http://www.w3.org/TR/2001/REC-SVG-20010904/DTD/svg10.dtd" [
 <!ATTLIST svg xmlns:xlink CDATA #FIXED "http://www.w3.org/1999/xlink">
]>
<!-- Generated by Graphviz version 2.20.2 (Tue Mar &#160;2 21:46:26 UTC 2010)
     For user: (pratik) pratik,,, -->
<!-- Title: models_diagram Pages: 1 -->
<svg width="1059pt" height="1152pt"
 viewBox="0.00 0.00 1059.00 1152.00" xmlns="http://www.w3.org/2000/svg" xmlns:xlink="http://www.w3.org/1999/xlink">
<g id="graph0" class="graph" transform="scale(1 1) rotate(0) translate(4 1148)">
<title>models_diagram</title>
<polygon style="fill:white;stroke:white;" points="-4,4 -4,-1148 1055,-1148 1055,4 -4,4"/>
<!-- _diagram_info -->
<g id="node1" class="node"><title>_diagram_info</title>
<text text-anchor="start" x="552.5" y="-1055.8" style="font-family:Times New Roman;font-size:13.00;">Models diagram</text>
<text text-anchor="start" x="552.5" y="-1038.8" style="font-family:Times New Roman;font-size:13.00;">Date: Jul 14 2011 &#45; 15:48</text>
<text text-anchor="start" x="552.5" y="-1021.8" style="font-family:Times New Roman;font-size:13.00;">Migration version: 20110713133144</text>
<text text-anchor="start" x="552.5" y="-1004.8" style="font-family:Times New Roman;font-size:13.00;">Generated by RailRoady 1.0.2</text>
<text text-anchor="start" x="552.5" y="-987.8" style="font-family:Times New Roman;font-size:13.00;">http://railroady.prestonlee.com</text>
</g>
<!-- NonProfitCategory -->
<g id="node2" class="node"><title>NonProfitCategory</title>
<polyline style="fill:none;stroke:black;" points="12,-85 153,-85 "/>
<path style="fill:none;stroke:black;" d="M153,-85C159,-85 165,-91 165,-97"/>
<polyline style="fill:none;stroke:black;" points="165,-97 165,-140 "/>
<path style="fill:none;stroke:black;" d="M165,-140C165,-146 159,-152 153,-152"/>
<polyline style="fill:none;stroke:black;" points="153,-152 12,-152 "/>
<path style="fill:none;stroke:black;" d="M12,-152C6,-152 0,-146 0,-140"/>
<polyline style="fill:none;stroke:black;" points="0,-140 0,-97 "/>
<path style="fill:none;stroke:black;" d="M0,-97C0,-91 6,-85 12,-85"/>
<text text-anchor="middle" x="82" y="-134.9" style="font-family:Times New Roman;font-size:14.00;">NonProfitCategory</text>
<polyline style="fill:none;stroke:black;" points="0,-127 165,-127 "/>
<text text-anchor="start" x="7.5" y="-110.4" style="font-family:Times New Roman;font-size:14.00;">created_at :datetime</text>
<text text-anchor="start" x="7.5" y="-93.4" style="font-family:Times New Roman;font-size:14.00;">updated_at :datetime</text>
</g>
<!-- ProfileSocialNetwork -->
<g id="node3" class="node"><title>ProfileSocialNetwork</title>
<polyline style="fill:none;stroke:black;" points="899,-376 1040,-376 "/>
<path style="fill:none;stroke:black;" d="M1040,-376C1046,-376 1052,-382 1052,-388"/>
<polyline style="fill:none;stroke:black;" points="1052,-388 1052,-448 "/>
<path style="fill:none;stroke:black;" d="M1052,-448C1052,-454 1046,-460 1040,-460"/>
<polyline style="fill:none;stroke:black;" points="1040,-460 899,-460 "/>
<path style="fill:none;stroke:black;" d="M899,-460C893,-460 887,-454 887,-448"/>
<polyline style="fill:none;stroke:black;" points="887,-448 887,-388 "/>
<path style="fill:none;stroke:black;" d="M887,-388C887,-382 893,-376 899,-376"/>
<text text-anchor="middle" x="969" y="-442.9" style="font-family:Times New Roman;font-size:14.00;">ProfileSocialNetwork</text>
<polyline style="fill:none;stroke:black;" points="887,-435 1052,-435 "/>
<text text-anchor="start" x="894.5" y="-417.9" style="font-family:Times New Roman;font-size:14.00;">user_url :string</text>
<text text-anchor="start" x="894.5" y="-400.9" style="font-family:Times New Roman;font-size:14.00;">created_at :datetime</text>
<text text-anchor="start" x="894.5" y="-383.9" style="font-family:Times New Roman;font-size:14.00;">updated_at :datetime</text>
</g>
<!-- Profile -->
<g id="node4" class="node"><title>Profile</title>
<polyline style="fill:none;stroke:black;" points="823,-906 1008,-906 "/>
<path style="fill:none;stroke:black;" d="M1008,-906C1014,-906 1020,-912 1020,-918"/>
<polyline style="fill:none;stroke:black;" points="1020,-918 1020,-1131 "/>
<path style="fill:none;stroke:black;" d="M1020,-1131C1020,-1137 1014,-1143 1008,-1143"/>
<polyline style="fill:none;stroke:black;" points="1008,-1143 823,-1143 "/>
<path style="fill:none;stroke:black;" d="M823,-1143C817,-1143 811,-1137 811,-1131"/>
<polyline style="fill:none;stroke:black;" points="811,-1131 811,-918 "/>
<path style="fill:none;stroke:black;" d="M811,-918C811,-912 817,-906 823,-906"/>
<text text-anchor="middle" x="915" y="-1125.9" style="font-family:Times New Roman;font-size:14.00;">Profile</text>
<polyline style="fill:none;stroke:black;" points="811,-1118 1020,-1118 "/>
<text text-anchor="start" x="818.5" y="-1101.4" style="font-family:Times New Roman;font-size:14.00;">first_name :string</text>
<text text-anchor="start" x="818.5" y="-1084.4" style="font-family:Times New Roman;font-size:14.00;">last_name :string</text>
<text text-anchor="start" x="818.5" y="-1067.4" style="font-family:Times New Roman;font-size:14.00;">age :integer</text>
<text text-anchor="start" x="818.5" y="-1050.4" style="font-family:Times New Roman;font-size:14.00;">gender :string</text>
<text text-anchor="start" x="818.5" y="-1033.4" style="font-family:Times New Roman;font-size:14.00;">website :string</text>
<text text-anchor="start" x="818.5" y="-1016.4" style="font-family:Times New Roman;font-size:14.00;">about_me :text</text>
<text text-anchor="start" x="818.5" y="-999.4" style="font-family:Times New Roman;font-size:14.00;">avatar_file_name :string</text>
<text text-anchor="start" x="818.5" y="-982.4" style="font-family:Times New Roman;font-size:14.00;">avatar_content_type :string</text>
<text text-anchor="start" x="818.5" y="-965.4" style="font-family:Times New Roman;font-size:14.00;">avatar_file_size :integer</text>
<text text-anchor="start" x="818.5" y="-948.4" style="font-family:Times New Roman;font-size:14.00;">is_verified :boolean</text>
<text text-anchor="start" x="818.5" y="-931.4" style="font-family:Times New Roman;font-size:14.00;">created_at :datetime</text>
<text text-anchor="start" x="818.5" y="-914.4" style="font-family:Times New Roman;font-size:14.00;">updated_at :datetime</text>
</g>
<!-- Profile&#45;&gt;ProfileSocialNetwork -->
<g id="edge4" class="edge"><title>Profile&#45;&gt;ProfileSocialNetwork</title>
<path style="fill:none;stroke:black;" d="M996,-898C1000,-889 1004,-879 1006,-870 1044,-729 1007,-555 985,-470"/>
<ellipse style="fill:none;stroke:black;" cx="994.405" cy="-902.255" rx="4.00001" ry="4.00001"/>
<polygon style="fill:black;stroke:black;" points="984.874,-469.578 986.31,-458.707 983.437,-464.789 982,-460 982,-460 982,-460 983.437,-464.789 977.69,-461.293 984.874,-469.578 984.874,-469.578"/>
</g>
<!-- User -->
<g id="node10" class="node"><title>User</title>
<polyline style="fill:none;stroke:black;" points="589,-598 803,-598 "/>
<path style="fill:none;stroke:black;" d="M803,-598C809,-598 815,-604 815,-610"/>
<polyline style="fill:none;stroke:black;" points="815,-610 815,-857 "/>
<path style="fill:none;stroke:black;" d="M815,-857C815,-863 809,-869 803,-869"/>
<polyline style="fill:none;stroke:black;" points="803,-869 589,-869 "/>
<path style="fill:none;stroke:black;" d="M589,-869C583,-869 577,-863 577,-857"/>
<polyline style="fill:none;stroke:black;" points="577,-857 577,-610 "/>
<path style="fill:none;stroke:black;" d="M577,-610C577,-604 583,-598 589,-598"/>
<text text-anchor="middle" x="696" y="-851.9" style="font-family:Times New Roman;font-size:14.00;">User</text>
<polyline style="fill:none;stroke:black;" points="577,-844 815,-844 "/>
<text text-anchor="start" x="585" y="-827.4" style="font-family:Times New Roman;font-size:14.00;">email :string</text>
<text text-anchor="start" x="585" y="-810.4" style="font-family:Times New Roman;font-size:14.00;">encrypted_password :string</text>
<text text-anchor="start" x="585" y="-793.4" style="font-family:Times New Roman;font-size:14.00;">reset_password_token :string</text>
<text text-anchor="start" x="585" y="-776.4" style="font-family:Times New Roman;font-size:14.00;">remember_created_at :datetime</text>
<text text-anchor="start" x="585" y="-759.4" style="font-family:Times New Roman;font-size:14.00;">current_sign_in_at :datetime</text>
<text text-anchor="start" x="585" y="-742.4" style="font-family:Times New Roman;font-size:14.00;">last_sign_in_at :datetime</text>
<text text-anchor="start" x="585" y="-725.4" style="font-family:Times New Roman;font-size:14.00;">current_sign_in_ip :string</text>
<text text-anchor="start" x="585" y="-708.4" style="font-family:Times New Roman;font-size:14.00;">last_sign_in_ip :string</text>
<text text-anchor="start" x="585" y="-691.4" style="font-family:Times New Roman;font-size:14.00;">confirmation_token :string</text>
<text text-anchor="start" x="585" y="-674.4" style="font-family:Times New Roman;font-size:14.00;">confirmed_at :datetime</text>
<text text-anchor="start" x="585" y="-657.4" style="font-family:Times New Roman;font-size:14.00;">confirmation_sent_at :datetime</text>
<text text-anchor="start" x="585" y="-640.4" style="font-family:Times New Roman;font-size:14.00;">authentication_token :string</text>
<text text-anchor="start" x="585" y="-623.4" style="font-family:Times New Roman;font-size:14.00;">created_at :datetime</text>
<text text-anchor="start" x="585" y="-606.4" style="font-family:Times New Roman;font-size:14.00;">updated_at :datetime</text>
</g>
<!-- Profile&#45;&gt;User -->
<g id="edge2" class="edge"><title>Profile&#45;&gt;User</title>
<path style="fill:none;stroke:black;" d="M820,-899C815,-891 808,-883 803,-876"/>
<ellipse style="fill:none;stroke:black;" cx="822.675" cy="-902.745" rx="4.00002" ry="4.00002"/>
<ellipse style="fill:black;stroke:black;" cx="800.325" cy="-872.255" rx="4.00002" ry="4.00002"/>
</g>
<!-- SocialNetwork -->
<g id="node12" class="node"><title>SocialNetwork</title>
<polyline style="fill:none;stroke:black;" points="845,-683 986,-683 "/>
<path style="fill:none;stroke:black;" d="M986,-683C992,-683 998,-689 998,-695"/>
<polyline style="fill:none;stroke:black;" points="998,-695 998,-772 "/>
<path style="fill:none;stroke:black;" d="M998,-772C998,-778 992,-784 986,-784"/>
<polyline style="fill:none;stroke:black;" points="986,-784 845,-784 "/>
<path style="fill:none;stroke:black;" d="M845,-784C839,-784 833,-778 833,-772"/>
<polyline style="fill:none;stroke:black;" points="833,-772 833,-695 "/>
<path style="fill:none;stroke:black;" d="M833,-695C833,-689 839,-683 845,-683"/>
<text text-anchor="middle" x="915" y="-766.9" style="font-family:Times New Roman;font-size:14.00;">SocialNetwork</text>
<polyline style="fill:none;stroke:black;" points="833,-759 998,-759 "/>
<text text-anchor="start" x="840.5" y="-742.4" style="font-family:Times New Roman;font-size:14.00;">name :string</text>
<text text-anchor="start" x="840.5" y="-725.4" style="font-family:Times New Roman;font-size:14.00;">site_url :string</text>
<text text-anchor="start" x="840.5" y="-708.4" style="font-family:Times New Roman;font-size:14.00;">created_at :datetime</text>
<text text-anchor="start" x="840.5" y="-691.4" style="font-family:Times New Roman;font-size:14.00;">updated_at :datetime</text>
</g>
<!-- Profile&#45;&gt;SocialNetwork -->
<g id="edge6" class="edge"><title>Profile&#45;&gt;SocialNetwork</title>
<path style="fill:none;stroke:black;" d="M915,-896C915,-860 915,-824 915,-794"/>
<polygon style="fill:black;stroke:black;" points="915,-896 910.5,-906 915,-901 915,-906 915,-906 915,-906 915,-901 919.5,-906 915,-896 915,-896"/>
<polygon style="fill:black;stroke:black;" points="915,-794 919.5,-784 915,-789 915,-784 915,-784 915,-784 915,-789 910.5,-784 915,-794 915,-794"/>
</g>
<!-- Category -->
<g id="node5" class="node"><title>Category</title>
<polyline style="fill:none;stroke:black;" points="173,-683 322,-683 "/>
<path style="fill:none;stroke:black;" d="M322,-683C328,-683 334,-689 334,-695"/>
<polyline style="fill:none;stroke:black;" points="334,-695 334,-772 "/>
<path style="fill:none;stroke:black;" d="M334,-772C334,-778 328,-784 322,-784"/>
<polyline style="fill:none;stroke:black;" points="322,-784 173,-784 "/>
<path style="fill:none;stroke:black;" d="M173,-784C167,-784 161,-778 161,-772"/>
<polyline style="fill:none;stroke:black;" points="161,-772 161,-695 "/>
<path style="fill:none;stroke:black;" d="M161,-695C161,-689 167,-683 173,-683"/>
<text text-anchor="middle" x="247" y="-766.9" style="font-family:Times New Roman;font-size:14.00;">Category</text>
<polyline style="fill:none;stroke:black;" points="161,-759 334,-759 "/>
<text text-anchor="start" x="168.5" y="-742.4" style="font-family:Times New Roman;font-size:14.00;">category_type :integer</text>
<text text-anchor="start" x="168.5" y="-725.4" style="font-family:Times New Roman;font-size:14.00;">name :string</text>
<text text-anchor="start" x="168.5" y="-708.4" style="font-family:Times New Roman;font-size:14.00;">created_at :datetime</text>
<text text-anchor="start" x="168.5" y="-691.4" style="font-family:Times New Roman;font-size:14.00;">updated_at :datetime</text>
</g>
<!-- Category&#45;&gt;NonProfitCategory -->
<g id="edge8" class="edge"><title>Category&#45;&gt;NonProfitCategory</title>
<path style="fill:none;stroke:black;" d="M154,-681C112,-652 67,-611 44,-562 -18,-427 35,-244 64,-162"/>
<ellipse style="fill:none;stroke:black;" cx="157.745" cy="-683.675" rx="4.00002" ry="4.00002"/>
<polygon style="fill:black;stroke:black;" points="64.286,-161.285 72.1781,-153.671 66.143,-156.642 68,-152 68,-152 68,-152 66.143,-156.642 63.8219,-150.329 64.286,-161.285 64.286,-161.285"/>
</g>
<!-- NonProfit -->
<g id="node6" class="node"><title>NonProfit</title>
<polyline style="fill:none;stroke:black;" points="65,-274 282,-274 "/>
<path style="fill:none;stroke:black;" d="M282,-274C288,-274 294,-280 294,-286"/>
<polyline style="fill:none;stroke:black;" points="294,-286 294,-550 "/>
<path style="fill:none;stroke:black;" d="M294,-550C294,-556 288,-562 282,-562"/>
<polyline style="fill:none;stroke:black;" points="282,-562 65,-562 "/>
<path style="fill:none;stroke:black;" d="M65,-562C59,-562 53,-556 53,-550"/>
<polyline style="fill:none;stroke:black;" points="53,-550 53,-286 "/>
<path style="fill:none;stroke:black;" d="M53,-286C53,-280 59,-274 65,-274"/>
<text text-anchor="middle" x="173" y="-544.9" style="font-family:Times New Roman;font-size:14.00;">NonProfit</text>
<polyline style="fill:none;stroke:black;" points="53,-537 294,-537 "/>
<text text-anchor="start" x="60.5" y="-519.9" style="font-family:Times New Roman;font-size:14.00;">name :string</text>
<text text-anchor="start" x="60.5" y="-502.9" style="font-family:Times New Roman;font-size:14.00;">EIN :string</text>
<text text-anchor="start" x="60.5" y="-485.9" style="font-family:Times New Roman;font-size:14.00;">description :text</text>
<text text-anchor="start" x="60.5" y="-468.9" style="font-family:Times New Roman;font-size:14.00;">document1_file_name :string</text>
<text text-anchor="start" x="60.5" y="-451.9" style="font-family:Times New Roman;font-size:14.00;">document2_file_name :string</text>
<text text-anchor="start" x="60.5" y="-434.9" style="font-family:Times New Roman;font-size:14.00;">photo_file_name :string</text>
<text text-anchor="start" x="60.5" y="-417.9" style="font-family:Times New Roman;font-size:14.00;">document1_content_type :string</text>
<text text-anchor="start" x="60.5" y="-400.9" style="font-family:Times New Roman;font-size:14.00;">document2_content_type :string</text>
<text text-anchor="start" x="60.5" y="-383.9" style="font-family:Times New Roman;font-size:14.00;">photo_content_type :string</text>
<text text-anchor="start" x="60.5" y="-366.9" style="font-family:Times New Roman;font-size:14.00;">document1_file_size :integer</text>
<text text-anchor="start" x="60.5" y="-349.9" style="font-family:Times New Roman;font-size:14.00;">document2_file_size :integer</text>
<text text-anchor="start" x="60.5" y="-332.9" style="font-family:Times New Roman;font-size:14.00;">photo_file_size :integer</text>
<text text-anchor="start" x="60.5" y="-315.9" style="font-family:Times New Roman;font-size:14.00;">is_verified :boolean</text>
<text text-anchor="start" x="60.5" y="-298.9" style="font-family:Times New Roman;font-size:14.00;">created_at :datetime</text>
<text text-anchor="start" x="60.5" y="-281.9" style="font-family:Times New Roman;font-size:14.00;">updated_at :datetime</text>
</g>
<!-- Category&#45;&gt;NonProfit -->
<g id="edge10" class="edge"><title>Category&#45;&gt;NonProfit</title>
<path style="fill:none;stroke:black;" d="M233,-673C226,-644 218,-608 209,-572"/>
<polygon style="fill:black;stroke:black;" points="233.039,-673.194 230.587,-683.883 234.019,-678.097 235,-683 235,-683 235,-683 234.019,-678.097 239.413,-682.117 233.039,-673.194 233.039,-673.194"/>
<polygon style="fill:black;stroke:black;" points="208.961,-571.806 211.413,-561.117 207.981,-566.903 207,-562 207,-562 207,-562 207.981,-566.903 202.587,-562.883 208.961,-571.806 208.961,-571.806"/>
</g>
<!-- ServiceCategory -->
<g id="node7" class="node"><title>ServiceCategory</title>
<polyline style="fill:none;stroke:black;" points="222,-85 363,-85 "/>
<path style="fill:none;stroke:black;" d="M363,-85C369,-85 375,-91 375,-97"/>
<polyline style="fill:none;stroke:black;" points="375,-97 375,-140 "/>
<path style="fill:none;stroke:black;" d="M375,-140C375,-146 369,-152 363,-152"/>
<polyline style="fill:none;stroke:black;" points="363,-152 222,-152 "/>
<path style="fill:none;stroke:black;" d="M222,-152C216,-152 210,-146 210,-140"/>
<polyline style="fill:none;stroke:black;" points="210,-140 210,-97 "/>
<path style="fill:none;stroke:black;" d="M210,-97C210,-91 216,-85 222,-85"/>
<text text-anchor="middle" x="292" y="-134.9" style="font-family:Times New Roman;font-size:14.00;">ServiceCategory</text>
<polyline style="fill:none;stroke:black;" points="210,-127 375,-127 "/>
<text text-anchor="start" x="217.5" y="-110.4" style="font-family:Times New Roman;font-size:14.00;">created_at :datetime</text>
<text text-anchor="start" x="217.5" y="-93.4" style="font-family:Times New Roman;font-size:14.00;">updated_at :datetime</text>
</g>
<!-- Category&#45;&gt;ServiceCategory -->
<g id="edge12" class="edge"><title>Category&#45;&gt;ServiceCategory</title>
<path style="fill:none;stroke:black;" d="M271,-675C283,-642 296,-601 302,-562 325,-417 309,-242 298,-162"/>
<ellipse style="fill:none;stroke:black;" cx="269.405" cy="-679.255" rx="4.00001" ry="4.00001"/>
<polygon style="fill:black;stroke:black;" points="297.995,-161.95 301.478,-151.552 297.498,-156.975 297,-152 297,-152 297,-152 297.498,-156.975 292.522,-152.448 297.995,-161.95 297.995,-161.95"/>
</g>
<!-- Service -->
<g id="node13" class="node"><title>Service</title>
<polyline style="fill:none;stroke:black;" points="457,-274 645,-274 "/>
<path style="fill:none;stroke:black;" d="M645,-274C651,-274 657,-280 657,-286"/>
<polyline style="fill:none;stroke:black;" points="657,-286 657,-550 "/>
<path style="fill:none;stroke:black;" d="M657,-550C657,-556 651,-562 645,-562"/>
<polyline style="fill:none;stroke:black;" points="645,-562 457,-562 "/>
<path style="fill:none;stroke:black;" d="M457,-562C451,-562 445,-556 445,-550"/>
<polyline style="fill:none;stroke:black;" points="445,-550 445,-286 "/>
<path style="fill:none;stroke:black;" d="M445,-286C445,-280 451,-274 457,-274"/>
<text text-anchor="middle" x="551" y="-544.9" style="font-family:Times New Roman;font-size:14.00;">Service</text>
<polyline style="fill:none;stroke:black;" points="445,-537 657,-537 "/>
<text text-anchor="start" x="453" y="-519.9" style="font-family:Times New Roman;font-size:14.00;">title :string</text>
<text text-anchor="start" x="453" y="-502.9" style="font-family:Times New Roman;font-size:14.00;">description :text</text>
<text text-anchor="start" x="453" y="-485.9" style="font-family:Times New Roman;font-size:14.00;">amount :float</text>
<text text-anchor="start" x="453" y="-468.9" style="font-family:Times New Roman;font-size:14.00;">booking_capacity :integer</text>
<text text-anchor="start" x="453" y="-451.9" style="font-family:Times New Roman;font-size:14.00;">booked_seat :integer</text>
<text text-anchor="start" x="453" y="-434.9" style="font-family:Times New Roman;font-size:14.00;">is_scheduled :boolean</text>
<text text-anchor="start" x="453" y="-417.9" style="font-family:Times New Roman;font-size:14.00;">start_time :time</text>
<text text-anchor="start" x="453" y="-400.9" style="font-family:Times New Roman;font-size:14.00;">end_time :time</text>
<text text-anchor="start" x="453" y="-383.9" style="font-family:Times New Roman;font-size:14.00;">start_date :date</text>
<text text-anchor="start" x="453" y="-366.9" style="font-family:Times New Roman;font-size:14.00;">end_date :date</text>
<text text-anchor="start" x="453" y="-349.9" style="font-family:Times New Roman;font-size:14.00;">non_profit_percentage :float</text>
<text text-anchor="start" x="453" y="-332.9" style="font-family:Times New Roman;font-size:14.00;">is_virtual :boolean</text>
<text text-anchor="start" x="453" y="-315.9" style="font-family:Times New Roman;font-size:14.00;">is_public :boolean</text>
<text text-anchor="start" x="453" y="-298.9" style="font-family:Times New Roman;font-size:14.00;">created_at :datetime</text>
<text text-anchor="start" x="453" y="-281.9" style="font-family:Times New Roman;font-size:14.00;">updated_at :datetime</text>
</g>
<!-- Category&#45;&gt;Service -->
<g id="edge14" class="edge"><title>Category&#45;&gt;Service</title>
<path style="fill:none;stroke:black;" d="M303,-676C341,-636 392,-583 438,-535"/>
<polygon style="fill:black;stroke:black;" points="303.071,-675.929 292.818,-679.818 299.536,-679.464 296,-683 296,-683 296,-683 299.536,-679.464 299.182,-686.182 303.071,-675.929 303.071,-675.929"/>
<polygon style="fill:black;stroke:black;" points="437.929,-535.071 448.182,-531.182 441.464,-531.536 445,-528 445,-528 445,-528 441.464,-531.536 441.818,-524.818 437.929,-535.071 437.929,-535.071"/>
</g>
<!-- NonProfit&#45;&gt;NonProfitCategory -->
<g id="edge16" class="edge"><title>NonProfit&#45;&gt;NonProfitCategory</title>
<path style="fill:none;stroke:black;" d="M127,-266C115,-228 103,-189 95,-162"/>
<ellipse style="fill:none;stroke:black;" cx="128.03" cy="-270.119" rx="4.00001" ry="4.00001"/>
<polygon style="fill:black;stroke:black;" points="94.8735,-161.578 96.3102,-150.707 93.4368,-156.789 92,-152 92,-152 92,-152 93.4368,-156.789 87.6898,-153.293 94.8735,-161.578 94.8735,-161.578"/>
</g>
<!-- Location -->
<g id="node8" class="node"><title>Location</title>
<polyline style="fill:none;stroke:black;" points="808,-0 949,-0 "/>
<path style="fill:none;stroke:black;" d="M949,-0C955,-0 961,-6 961,-12"/>
<polyline style="fill:none;stroke:black;" points="961,-12 961,-225 "/>
<path style="fill:none;stroke:black;" d="M961,-225C961,-231 955,-237 949,-237"/>
<polyline style="fill:none;stroke:black;" points="949,-237 808,-237 "/>
<path style="fill:none;stroke:black;" d="M808,-237C802,-237 796,-231 796,-225"/>
<polyline style="fill:none;stroke:black;" points="796,-225 796,-12 "/>
<path style="fill:none;stroke:black;" d="M796,-12C796,-6 802,-0 808,-0"/>
<text text-anchor="middle" x="878" y="-219.9" style="font-family:Times New Roman;font-size:14.00;">Location</text>
<polyline style="fill:none;stroke:black;" points="796,-212 961,-212 "/>
<text text-anchor="start" x="803.5" y="-195.4" style="font-family:Times New Roman;font-size:14.00;">phone :string</text>
<text text-anchor="start" x="803.5" y="-178.4" style="font-family:Times New Roman;font-size:14.00;">mobile :string</text>
<text text-anchor="start" x="803.5" y="-161.4" style="font-family:Times New Roman;font-size:14.00;">locality :string</text>
<text text-anchor="start" x="803.5" y="-144.4" style="font-family:Times New Roman;font-size:14.00;">city :string</text>
<text text-anchor="start" x="803.5" y="-127.4" style="font-family:Times New Roman;font-size:14.00;">state :string</text>
<text text-anchor="start" x="803.5" y="-110.4" style="font-family:Times New Roman;font-size:14.00;">country :string</text>
<text text-anchor="start" x="803.5" y="-93.4" style="font-family:Times New Roman;font-size:14.00;">email :string</text>
<text text-anchor="start" x="803.5" y="-76.4" style="font-family:Times New Roman;font-size:14.00;">resource_type :string</text>
<text text-anchor="start" x="803.5" y="-59.4" style="font-family:Times New Roman;font-size:14.00;">latitude :string</text>
<text text-anchor="start" x="803.5" y="-42.4" style="font-family:Times New Roman;font-size:14.00;">longitude :string</text>
<text text-anchor="start" x="803.5" y="-25.4" style="font-family:Times New Roman;font-size:14.00;">created_at :datetime</text>
<text text-anchor="start" x="803.5" y="-8.4" style="font-family:Times New Roman;font-size:14.00;">updated_at :datetime</text>
</g>
<!-- Participant -->
<g id="node9" class="node"><title>Participant</title>
<polyline style="fill:none;stroke:black;" points="626,-85 767,-85 "/>
<path style="fill:none;stroke:black;" d="M767,-85C773,-85 779,-91 779,-97"/>
<polyline style="fill:none;stroke:black;" points="779,-97 779,-140 "/>
<path style="fill:none;stroke:black;" d="M779,-140C779,-146 773,-152 767,-152"/>
<polyline style="fill:none;stroke:black;" points="767,-152 626,-152 "/>
<path style="fill:none;stroke:black;" d="M626,-152C620,-152 614,-146 614,-140"/>
<polyline style="fill:none;stroke:black;" points="614,-140 614,-97 "/>
<path style="fill:none;stroke:black;" d="M614,-97C614,-91 620,-85 626,-85"/>
<text text-anchor="middle" x="696" y="-134.9" style="font-family:Times New Roman;font-size:14.00;">Participant</text>
<polyline style="fill:none;stroke:black;" points="614,-127 779,-127 "/>
<text text-anchor="start" x="621.5" y="-110.4" style="font-family:Times New Roman;font-size:14.00;">created_at :datetime</text>
<text text-anchor="start" x="621.5" y="-93.4" style="font-family:Times New Roman;font-size:14.00;">updated_at :datetime</text>
</g>
<!-- User&#45;&gt;Location -->
<g id="edge22" class="edge"><title>User&#45;&gt;Location</title>
<path style="fill:none;stroke:black;" d="M738,-590C769,-486 812,-344 841,-245"/>
<ellipse style="fill:none;stroke:black;" cx="736.97" cy="-594.119" rx="4.00001" ry="4.00001"/>
<ellipse style="fill:black;stroke:black;" cx="842.03" cy="-240.881" rx="4.00001" ry="4.00001"/>
</g>
<!-- User&#45;&gt;Participant -->
<g id="edge18" class="edge"><title>User&#45;&gt;Participant</title>
<path style="fill:none;stroke:black;" d="M696,-590C696,-452 696,-250 696,-162"/>
<ellipse style="fill:none;stroke:black;" cx="696" cy="-594" rx="4" ry="4"/>
<polygon style="fill:black;stroke:black;" points="696,-162 700.5,-152 696,-157 696,-152 696,-152 696,-152 696,-157 691.5,-152 696,-162 696,-162"/>
</g>
<!-- User&#45;&gt;Service -->
<g id="edge20" class="edge"><title>User&#45;&gt;Service</title>
<path style="fill:none;stroke:black;" d="M629,-589C626,-583 624,-577 621,-571"/>
<polygon style="fill:black;stroke:black;" points="628.939,-588.862 628.888,-599.828 630.969,-593.431 633,-598 633,-598 633,-598 630.969,-593.431 637.112,-596.172 628.939,-588.862 628.939,-588.862"/>
<polygon style="fill:black;stroke:black;" points="621.061,-571.138 621.112,-560.172 619.031,-566.569 617,-562 617,-562 617,-562 619.031,-566.569 612.888,-563.828 621.061,-571.138 621.061,-571.138"/>
</g>
<!-- Image -->
<g id="node11" class="node"><title>Image</title>
<polyline style="fill:none;stroke:black;" points="404,-51 585,-51 "/>
<path style="fill:none;stroke:black;" d="M585,-51C591,-51 597,-57 597,-63"/>
<polyline style="fill:none;stroke:black;" points="597,-63 597,-174 "/>
<path style="fill:none;stroke:black;" d="M597,-174C597,-180 591,-186 585,-186"/>
<polyline style="fill:none;stroke:black;" points="585,-186 404,-186 "/>
<path style="fill:none;stroke:black;" d="M404,-186C398,-186 392,-180 392,-174"/>
<polyline style="fill:none;stroke:black;" points="392,-174 392,-63 "/>
<path style="fill:none;stroke:black;" d="M392,-63C392,-57 398,-51 404,-51"/>
<text text-anchor="middle" x="494" y="-168.9" style="font-family:Times New Roman;font-size:14.00;">Image</text>
<polyline style="fill:none;stroke:black;" points="392,-161 597,-161 "/>
<text text-anchor="start" x="399.5" y="-144.4" style="font-family:Times New Roman;font-size:14.00;">image_file_name :string</text>
<text text-anchor="start" x="399.5" y="-127.4" style="font-family:Times New Roman;font-size:14.00;">image_content_type :string</text>
<text text-anchor="start" x="399.5" y="-110.4" style="font-family:Times New Roman;font-size:14.00;">image_file_size :integer</text>
<text text-anchor="start" x="399.5" y="-93.4" style="font-family:Times New Roman;font-size:14.00;">is_album_cover :boolean</text>
<text text-anchor="start" x="399.5" y="-76.4" style="font-family:Times New Roman;font-size:14.00;">created_at :datetime</text>
<text text-anchor="start" x="399.5" y="-59.4" style="font-family:Times New Roman;font-size:14.00;">updated_at :datetime</text>
</g>
<!-- SocialNetwork&#45;&gt;ProfileSocialNetwork -->
<g id="edge24" class="edge"><title>SocialNetwork&#45;&gt;ProfileSocialNetwork</title>
<path style="fill:none;stroke:black;" d="M925,-675C935,-616 950,-527 960,-470"/>
<ellipse style="fill:none;stroke:black;" cx="924.496" cy="-679.031" rx="4.00001" ry="4.00001"/>
<polygon style="fill:black;stroke:black;" points="960.039,-469.806 966.413,-460.883 961.019,-464.903 962,-460 962,-460 962,-460 961.019,-464.903 957.587,-459.117 960.039,-469.806 960.039,-469.806"/>
</g>
<!-- Service&#45;&gt;ServiceCategory -->
<g id="edge32" class="edge"><title>Service&#45;&gt;ServiceCategory</title>
<path style="fill:none;stroke:black;" d="M439,-301C420,-281 400,-259 383,-238 363,-213 340,-183 322,-160"/>
<ellipse style="fill:none;stroke:black;" cx="442.172" cy="-304.172" rx="4.00002" ry="4.00002"/>
<polygon style="fill:black;stroke:black;" points="322,-160 319.6,-149.3 319,-156 316,-152 316,-152 316,-152 319,-156 312.4,-154.7 322,-160 322,-160"/>
</g>
<!-- Service&#45;&gt;Location -->
<g id="edge26" class="edge"><title>Service&#45;&gt;Location</title>
<path style="fill:none;stroke:black;" d="M664,-341C705,-311 750,-275 787,-238 788,-237 789,-236 790,-235"/>
<ellipse style="fill:none;stroke:black;" cx="660.255" cy="-343.675" rx="4.00002" ry="4.00002"/>
<ellipse style="fill:black;stroke:black;" cx="793.172" cy="-231.828" rx="4.00002" ry="4.00002"/>
</g>
<!-- Service&#45;&gt;Participant -->
<g id="edge28" class="edge"><title>Service&#45;&gt;Participant</title>
<path style="fill:none;stroke:black;" d="M624,-267C643,-227 662,-189 676,-161"/>
<ellipse style="fill:none;stroke:black;" cx="622.576" cy="-270.323" rx="4.00002" ry="4.00002"/>
<polygon style="fill:black;stroke:black;" points="675.939,-161.138 684.112,-153.828 677.969,-156.569 680,-152 680,-152 680,-152 677.969,-156.569 675.888,-150.172 675.939,-161.138 675.939,-161.138"/>
</g>
<!-- Service&#45;&gt;Image -->
<g id="edge30" class="edge"><title>Service&#45;&gt;Image</title>
<path style="fill:none;stroke:black;" d="M522,-266C518,-242 513,-218 509,-196"/>
<ellipse style="fill:none;stroke:black;" cx="523.03" cy="-270.119" rx="4.00001" ry="4.00001"/>
<polygon style="fill:black;stroke:black;" points="508.961,-195.806 511.413,-185.117 507.981,-190.903 507,-186 507,-186 507,-186 507.981,-190.903 502.587,-186.883 508.961,-195.806 508.961,-195.806"/>
</g>
</g>
</svg>
