<?xml version="1.0" encoding="UTF-8" standalone="no"?>
<!DOCTYPE svg PUBLIC "-//W3C//DTD SVG 1.0//EN"
 "http://www.w3.org/TR/2001/REC-SVG-20010904/DTD/svg10.dtd" [
 <!ATTLIST svg xmlns:xlink CDATA #FIXED "http://www.w3.org/1999/xlink">
]>
<!-- Generated by Graphviz version 2.20.2 (Tue Mar &#160;2 21:46:26 UTC 2010)
     For user: (pratik) pratik,,, -->
<!-- Title: models_diagram Pages: 1 -->
<svg width="915pt" height="318pt"
 viewBox="0.00 0.00 915.00 318.00" xmlns="http://www.w3.org/2000/svg" xmlns:xlink="http://www.w3.org/1999/xlink">
<g id="graph0" class="graph" transform="scale(1 1) rotate(0) translate(4 314)">
<title>models_diagram</title>
<polygon style="fill:white;stroke:white;" points="-4,4 -4,-314 911,-314 911,4 -4,4"/>
<!-- _diagram_info -->
<g id="node1" class="node"><title>_diagram_info</title>
<text text-anchor="start" x="405.5" y="-293.8" style="font-family:Times New Roman;font-size:13.00;">Models diagram</text>
<text text-anchor="start" x="405.5" y="-276.8" style="font-family:Times New Roman;font-size:13.00;">Date: Jul 14 2011 &#45; 15:47</text>
<text text-anchor="start" x="405.5" y="-259.8" style="font-family:Times New Roman;font-size:13.00;">Migration version: 20110713095236</text>
<text text-anchor="start" x="405.5" y="-242.8" style="font-family:Times New Roman;font-size:13.00;">Generated by RailRoady 1.0.2</text>
<text text-anchor="start" x="405.5" y="-225.8" style="font-family:Times New Roman;font-size:13.00;">http://railroady.prestonlee.com</text>
</g>
<!-- NonProfitCategory -->
<g id="node2" class="node"><title>NonProfitCategory</title>
<ellipse style="fill:none;stroke:black;" cx="100" cy="-18" rx="100.063" ry="18"/>
<text text-anchor="middle" x="100" y="-13.9" style="font-family:Times New Roman;font-size:14.00;">NonProfitCategory</text>
</g>
<!-- ProfileSocialNetwork -->
<g id="node3" class="node"><title>ProfileSocialNetwork</title>
<ellipse style="fill:none;stroke:black;" cx="797" cy="-90" rx="109.986" ry="18"/>
<text text-anchor="middle" x="797" y="-85.9" style="font-family:Times New Roman;font-size:14.00;">ProfileSocialNetwork</text>
</g>
<!-- Profile -->
<g id="node4" class="node"><title>Profile</title>
<ellipse style="fill:none;stroke:black;" cx="705" cy="-263" rx="41.1906" ry="18"/>
<text text-anchor="middle" x="705" y="-258.9" style="font-family:Times New Roman;font-size:14.00;">Profile</text>
</g>
<!-- Profile&#45;&gt;ProfileSocialNetwork -->
<g id="edge4" class="edge"><title>Profile&#45;&gt;ProfileSocialNetwork</title>
<path style="fill:none;stroke:black;" d="M736,-243C756,-229 781,-207 794,-180 802,-161 803,-137 801,-118"/>
<ellipse style="fill:none;stroke:black;" cx="732.255" cy="-245.675" rx="4.00002" ry="4.00002"/>
<polygon style="fill:black;stroke:black;" points="800.995,-117.95 804.478,-107.552 800.498,-112.975 800,-108 800,-108 800,-108 800.498,-112.975 795.522,-108.448 800.995,-117.95 800.995,-117.95"/>
</g>
<!-- User -->
<g id="node10" class="node"><title>User</title>
<ellipse style="fill:none;stroke:black;" cx="574" cy="-162" rx="32.8565" ry="18"/>
<text text-anchor="middle" x="574" y="-157.9" style="font-family:Times New Roman;font-size:14.00;">User</text>
</g>
<!-- Profile&#45;&gt;User -->
<g id="edge2" class="edge"><title>Profile&#45;&gt;User</title>
<path style="fill:none;stroke:black;" d="M683,-240C674,-232 665,-223 655,-216 639,-203 619,-190 603,-180"/>
<ellipse style="fill:none;stroke:black;" cx="686.172" cy="-243.172" rx="4.00002" ry="4.00002"/>
<ellipse style="fill:black;stroke:black;" cx="599.255" cy="-177.325" rx="4.00002" ry="4.00002"/>
</g>
<!-- SocialNetwork -->
<g id="node12" class="node"><title>SocialNetwork</title>
<ellipse style="fill:none;stroke:black;" cx="705" cy="-162" rx="80.1057" ry="18"/>
<text text-anchor="middle" x="705" y="-157.9" style="font-family:Times New Roman;font-size:14.00;">SocialNetwork</text>
</g>
<!-- Profile&#45;&gt;SocialNetwork -->
<g id="edge6" class="edge"><title>Profile&#45;&gt;SocialNetwork</title>
<path style="fill:none;stroke:black;" d="M705,-235C705,-221 705,-205 705,-190"/>
<polygon style="fill:black;stroke:black;" points="705,-235 700.5,-245 705,-240 705,-245 705,-245 705,-245 705,-240 709.5,-245 705,-235 705,-235"/>
<polygon style="fill:black;stroke:black;" points="705,-190 709.5,-180 705,-185 705,-180 705,-180 705,-180 705,-185 700.5,-180 705,-190 705,-190"/>
</g>
<!-- Category -->
<g id="node5" class="node"><title>Category</title>
<ellipse style="fill:none;stroke:black;" cx="241" cy="-162" rx="54.8957" ry="18"/>
<text text-anchor="middle" x="241" y="-157.9" style="font-family:Times New Roman;font-size:14.00;">Category</text>
</g>
<!-- Category&#45;&gt;NonProfitCategory -->
<g id="edge8" class="edge"><title>Category&#45;&gt;NonProfitCategory</title>
<path style="fill:none;stroke:black;" d="M191,-147C169,-139 145,-127 129,-108 115,-90 107,-65 104,-46"/>
<ellipse style="fill:none;stroke:black;" cx="195.255" cy="-148.595" rx="4.00001" ry="4.00001"/>
<polygon style="fill:black;stroke:black;" points="103.961,-45.8058 106.413,-35.1174 102.981,-40.9029 102,-36 102,-36 102,-36 102.981,-40.9029 97.5874,-36.8826 103.961,-45.8058 103.961,-45.8058"/>
</g>
<!-- NonProfit -->
<g id="node6" class="node"><title>NonProfit</title>
<ellipse style="fill:none;stroke:black;" cx="194" cy="-90" rx="55.7874" ry="18"/>
<text text-anchor="middle" x="194" y="-85.9" style="font-family:Times New Roman;font-size:14.00;">NonProfit</text>
</g>
<!-- Category&#45;&gt;NonProfit -->
<g id="edge10" class="edge"><title>Category&#45;&gt;NonProfit</title>
<path style="fill:none;stroke:black;" d="M224,-136C220,-129 215,-123 211,-116"/>
<polygon style="fill:black;stroke:black;" points="223.7,-135.52 225.184,-146.385 226.35,-139.76 229,-144 229,-144 229,-144 226.35,-139.76 232.816,-141.615 223.7,-135.52 223.7,-135.52"/>
<polygon style="fill:black;stroke:black;" points="211.3,-116.48 209.816,-105.615 208.65,-112.24 206,-108 206,-108 206,-108 208.65,-112.24 202.184,-110.385 211.3,-116.48 211.3,-116.48"/>
</g>
<!-- ServiceCategory -->
<g id="node7" class="node"><title>ServiceCategory</title>
<ellipse style="fill:none;stroke:black;" cx="307" cy="-18" rx="89.139" ry="18"/>
<text text-anchor="middle" x="307" y="-13.9" style="font-family:Times New Roman;font-size:14.00;">ServiceCategory</text>
</g>
<!-- Category&#45;&gt;ServiceCategory -->
<g id="edge12" class="edge"><title>Category&#45;&gt;ServiceCategory</title>
<path style="fill:none;stroke:black;" d="M252,-137C264,-111 282,-72 295,-45"/>
<ellipse style="fill:none;stroke:black;" cx="250.576" cy="-140.323" rx="4.00002" ry="4.00002"/>
<polygon style="fill:black;stroke:black;" points="294.939,-45.1381 303.112,-37.8277 296.969,-40.5691 299,-36 299,-36 299,-36 296.969,-40.5691 294.888,-34.1723 294.939,-45.1381 294.939,-45.1381"/>
</g>
<!-- Service -->
<g id="node13" class="node"><title>Service</title>
<ellipse style="fill:none;stroke:black;" cx="477" cy="-90" rx="45.8622" ry="18"/>
<text text-anchor="middle" x="477" y="-85.9" style="font-family:Times New Roman;font-size:14.00;">Service</text>
</g>
<!-- Category&#45;&gt;Service -->
<g id="edge14" class="edge"><title>Category&#45;&gt;Service</title>
<path style="fill:none;stroke:black;" d="M291,-147C332,-134 390,-116 430,-104"/>
<polygon style="fill:black;stroke:black;" points="290.578,-147.126 279.707,-145.69 285.789,-148.563 281,-150 281,-150 281,-150 285.789,-148.563 282.293,-154.31 290.578,-147.126 290.578,-147.126"/>
<polygon style="fill:black;stroke:black;" points="430.422,-103.874 441.293,-105.31 435.211,-102.437 440,-101 440,-101 440,-101 435.211,-102.437 438.707,-96.6898 430.422,-103.874 430.422,-103.874"/>
</g>
<!-- NonProfit&#45;&gt;NonProfitCategory -->
<g id="edge16" class="edge"><title>NonProfit&#45;&gt;NonProfitCategory</title>
<path style="fill:none;stroke:black;" d="M165,-68C155,-60 142,-50 131,-42"/>
<ellipse style="fill:none;stroke:black;" cx="168.745" cy="-70.675" rx="4.00002" ry="4.00002"/>
<polygon style="fill:black;stroke:black;" points="131,-42 125.7,-32.4 127,-39 123,-36 123,-36 123,-36 127,-39 120.3,-39.6 131,-42 131,-42"/>
</g>
<!-- Location -->
<g id="node8" class="node"><title>Location</title>
<ellipse style="fill:none;stroke:black;" cx="706" cy="-18" rx="52.1162" ry="18"/>
<text text-anchor="middle" x="706" y="-13.9" style="font-family:Times New Roman;font-size:14.00;">Location</text>
</g>
<!-- Participant -->
<g id="node9" class="node"><title>Participant</title>
<ellipse style="fill:none;stroke:black;" cx="574" cy="-18" rx="62.0391" ry="18"/>
<text text-anchor="middle" x="574" y="-13.9" style="font-family:Times New Roman;font-size:14.00;">Participant</text>
</g>
<!-- User&#45;&gt;Location -->
<g id="edge22" class="edge"><title>User&#45;&gt;Location</title>
<path style="fill:none;stroke:black;" d="M595,-140C619,-112 659,-68 684,-41"/>
<ellipse style="fill:none;stroke:black;" cx="591.828" cy="-143.172" rx="4.00002" ry="4.00002"/>
<ellipse style="fill:black;stroke:black;" cx="687.172" cy="-37.8284" rx="4.00002" ry="4.00002"/>
</g>
<!-- User&#45;&gt;Participant -->
<g id="edge18" class="edge"><title>User&#45;&gt;Participant</title>
<path style="fill:none;stroke:black;" d="M574,-136C574,-111 574,-72 574,-46"/>
<ellipse style="fill:none;stroke:black;" cx="574" cy="-140" rx="4" ry="4"/>
<polygon style="fill:black;stroke:black;" points="574,-46 578.5,-36 574,-41 574,-36 574,-36 574,-36 574,-41 569.5,-36 574,-46 574,-46"/>
</g>
<!-- User&#45;&gt;Service -->
<g id="edge20" class="edge"><title>User&#45;&gt;Service</title>
<path style="fill:none;stroke:black;" d="M546,-141C534,-132 520,-121 507,-112"/>
<polygon style="fill:black;stroke:black;" points="546,-141 551.3,-150.6 550,-144 554,-147 554,-147 554,-147 550,-144 556.7,-143.4 546,-141 546,-141"/>
<polygon style="fill:black;stroke:black;" points="507,-112 501.7,-102.4 503,-109 499,-106 499,-106 499,-106 503,-109 496.3,-109.6 507,-112 507,-112"/>
</g>
<!-- Image -->
<g id="node11" class="node"><title>Image</title>
<ellipse style="fill:none;stroke:black;" cx="454" cy="-18" rx="39.8056" ry="18"/>
<text text-anchor="middle" x="454" y="-13.9" style="font-family:Times New Roman;font-size:14.00;">Image</text>
</g>
<!-- SocialNetwork&#45;&gt;ProfileSocialNetwork -->
<g id="edge24" class="edge"><title>SocialNetwork&#45;&gt;ProfileSocialNetwork</title>
<path style="fill:none;stroke:black;" d="M733,-140C743,-131 755,-122 766,-114"/>
<ellipse style="fill:none;stroke:black;" cx="730.073" cy="-142.439" rx="4.00002" ry="4.00002"/>
<polygon style="fill:black;stroke:black;" points="766,-114 776.7,-111.6 770,-111 774,-108 774,-108 774,-108 770,-111 771.3,-104.4 766,-114 766,-114"/>
</g>
<!-- Service&#45;&gt;ServiceCategory -->
<g id="edge32" class="edge"><title>Service&#45;&gt;ServiceCategory</title>
<path style="fill:none;stroke:black;" d="M437,-74C413,-63 380,-49 354,-38"/>
<ellipse style="fill:none;stroke:black;" cx="441.255" cy="-75.5955" rx="4.00001" ry="4.00001"/>
<polygon style="fill:black;stroke:black;" points="354.138,-38.0614 346.828,-29.8878 349.569,-36.0307 345,-34 345,-34 345,-34 349.569,-36.0307 343.172,-38.1122 354.138,-38.0614 354.138,-38.0614"/>
</g>
<!-- Service&#45;&gt;Location -->
<g id="edge26" class="edge"><title>Service&#45;&gt;Location</title>
<path style="fill:none;stroke:black;" d="M521,-76C560,-64 619,-45 659,-33"/>
<ellipse style="fill:none;stroke:black;" cx="516.745" cy="-77.5955" rx="4.00001" ry="4.00001"/>
<ellipse style="fill:black;stroke:black;" cx="663.255" cy="-31.4045" rx="4.00001" ry="4.00001"/>
</g>
<!-- Service&#45;&gt;Participant -->
<g id="edge28" class="edge"><title>Service&#45;&gt;Participant</title>
<path style="fill:none;stroke:black;" d="M506,-69C517,-61 531,-50 543,-41"/>
<ellipse style="fill:none;stroke:black;" cx="502.255" cy="-71.675" rx="4.00002" ry="4.00002"/>
<polygon style="fill:black;stroke:black;" points="543,-41 553.7,-38.6 547,-38 551,-35 551,-35 551,-35 547,-38 548.3,-31.4 543,-41 543,-41"/>
</g>
<!-- Service&#45;&gt;Image -->
<g id="edge30" class="edge"><title>Service&#45;&gt;Image</title>
<path style="fill:none;stroke:black;" d="M468,-64C466,-58 464,-52 462,-46"/>
<ellipse style="fill:none;stroke:black;" cx="469.595" cy="-68.2547" rx="4.00001" ry="4.00001"/>
<polygon style="fill:black;stroke:black;" points="461.961,-45.8058 464.413,-35.1174 460.981,-40.9029 460,-36 460,-36 460,-36 460.981,-40.9029 455.587,-36.8826 461.961,-45.8058 461.961,-45.8058"/>
</g>
</g>
</svg>
